<?xml version="1.0" encoding="utf-8"?><svg viewBox="0 0 24 24" xmlns="http://www.w3.org/2000/svg" xmlns:xlink="http://www.w3.org/1999/xlink"><style>:root>svg{display:none}:root>svg:target{display:block}</style><svg viewBox="0 0 21 18" id="arrow" xmlns="http://www.w3.org/2000/svg"><path d="M0 9h20m0 0-7.917-7.5M20 9l-7.917 7.5"/></svg><svg viewBox="0 0 20 20" id="calendar" xmlns="http://www.w3.org/2000/svg"><path d="M15.833 16.834H4.167V7.667h11.666m-2.5-5.833V3.5H6.667V1.833H5V3.5h-.833A1.66 1.66 0 0 0 2.5 5.167v11.666A1.667 1.667 0 0 0 4.167 18.5h11.666a1.666 1.666 0 0 0 1.667-1.666V5.167A1.667 1.667 0 0 0 15.833 3.5H15V1.833M14.167 11H10v4.167h4.167V11Z"/></svg><svg viewBox="0 0 22 22" id="clock" xmlns="http://www.w3.org/2000/svg"><g clip-path="url(#ca)"><path d="M11 1.833A9.166 9.166 0 0 1 20.167 11 9.166 9.166 0 0 1 11 20.167 9.166 9.166 0 0 1 1.833 11 9.166 9.166 0 0 1 11 1.834ZM11 5.5a.916.916 0 0 0-.917.917V11c0 .243.097.476.269.648l2.75 2.75a.916.916 0 0 0 1.296-1.296l-2.481-2.481V6.417A.917.917 0 0 0 11 5.5Z"/></g><defs><clipPath id="ca"><path d="M0 0h22v22H0z"/></clipPath></defs></svg><svg viewBox="0 0 22 22" id="grid" xmlns="http://www.w3.org/2000/svg"><path fill-opacity=".4" d="M3 4h7v6H3zm9 0h7v6h-7zm-9 8h7v6H3zm9 0h7v6h-7z"/></svg><svg viewBox="0 0 22 22" id="list" xmlns="http://www.w3.org/2000/svg"><path d="M3 4h16v6H3zm0 8h16v6H3z"/></svg><svg viewBox="0 0 22 22" id="mail" xmlns="http://www.w3.org/2000/svg"><path d="M18.333 3.667H3.667A1.839 1.839 0 0 0 1.833 5.5v11c0 1.008.825 1.833 1.834 1.833h14.666a1.839 1.839 0 0 0 1.834-1.833v-11a1.839 1.839 0 0 0-1.834-1.833Zm-.366 3.895-5.995 3.75a1.816 1.816 0 0 1-1.944 0l-5.995-3.75a.78.78 0 1 1 .825-1.32L11 10.083l6.142-3.84a.78.78 0 1 1 .825 1.32Z"/></svg><svg viewBox="0 0 10 6" id="menu-drop-icon" xmlns="http://www.w3.org/2000/svg"><path d="M.707 1.707C.077 1.077.523 0 1.414 0h7.172c.89 0 1.337 1.077.707 1.707L5.707 5.293a1 1 0 0 1-1.414 0L.707 1.707Z"/></svg><svg viewBox="0 0 22 22" id="phone" xmlns="http://www.w3.org/2000/svg"><path d="m17.628 13.988-2.329-.265a1.825 1.825 0 0 0-1.503.522l-1.687 1.687A13.791 13.791 0 0 1 6.07 9.89l1.695-1.696c.394-.394.587-.944.523-1.503l-.266-2.31a1.834 1.834 0 0 0-1.824-1.623H4.61c-1.036 0-1.898.862-1.833 1.898.485 7.828 6.746 14.08 14.565 14.566 1.036.064 1.898-.798 1.898-1.834v-1.586a1.817 1.817 0 0 0-1.613-1.815Z"/></svg><svg viewBox="0 0 10 6" id="rectangle" xmlns="http://www.w3.org/2000/svg"><path d="M.707 1.707C.077 1.077.523 0 1.414 0h7.172c.89 0 1.337 1.077.707 1.707L5.707 5.293a1 1 0 0 1-1.414 0L.707 1.707Z"/></svg><svg viewBox="0 0 24 24" id="search" xmlns="http://www.w3.org/2000/svg"><path d="m17 17 4 4M3 11a8 8 0 1 0 16 0 8 8 0 0 0-16 0Z"/></svg></svg>